<?xml version="1.0" encoding="utf-8"?>
<!-- Generator: Adobe Illustrator 18.0.0, SVG Export Plug-In . SVG Version: 6.00 Build 0)  -->
<!DOCTYPE svg PUBLIC "-//W3C//DTD SVG 1.1//EN" "http://www.w3.org/Graphics/SVG/1.1/DTD/svg11.dtd">
<svg version="1.1" id="Layer_1" xmlns="http://www.w3.org/2000/svg" xmlns:xlink="http://www.w3.org/1999/xlink" x="0px" y="0px"
	 viewBox="0 0 40 29.9" enable-background="new 0 0 40 29.9" xml:space="preserve">
<path opacity="0.3" fill="#FFC000" d="M4,28.9L1.8,27l-0.7-2.5l0.6-3.1l4.9-6.9l2-2.7l5.8-4.6l1.5-1l2.7-0.7l3.4-2.8l1.3-0.5
	l0.9,0.5c0,0,1.1-0.2,1.3-0.2s1.2-0.3,1.2-0.3l1.1,0.2c0,0,0.3,0,0.8-0.2s2-1.1,2-1.1s0.9-0.3,1.2-0.3s1.3-0.4,1.8-0.1
	c0.5,0.2,0.9,0.3,1.3,0.4s0.7,0.2,1.1,0.2c0.4,0,0.6,0,1.3,0.2C38,1.7,38.5,1.8,38.5,2s0.3,1,0.3,1.5s0.1,1-0.1,1.3
	c-0.2,0.3-0.4,0.6-0.6,0.8c-0.2,0.2-0.3,0.2-0.4,0.5c-0.1,0.3-0.5,1-0.5,1s-0.2,0-0.4,0.1c-0.2,0.1-0.3,0.3-0.7,0.6
	c-0.3,0.3-0.1,0.3-0.7,0.6c-0.6,0.3-0.7,0.4-1.1,0.5s-0.7,0.3-1,0.3s-0.5,0-0.8,0s-0.7,0-1.1-0.1s-0.8-0.2-1-0.2
	c-0.1,0-0.5-0.2-0.8-0.2c-0.2,0-0.2-0.1-0.8,0c-0.6,0.1-0.5-0.1-1.1,0.3c-0.6,0.4-0.9,0.5-1.7,0.9c-0.8,0.4-1.1,0.3-1.6,0.6
	c-0.5,0.3-0.9,0.3-1.1,0.6c-0.2,0.2-0.5,0.1-0.7,0.4c-0.2,0.3-0.4-0.1-0.4,0.5c0,0.6,0,1.6,0,1.6s-0.2-0.3-0.3,0
	c0,0.3,0,0.4-0.1,0.7s0,0.3-0.3,0.8c-0.3,0.4-0.4,0.6-0.6,0.9c-0.2,0.3-0.4,0.6-0.5,0.8c-0.1,0.2-0.3,0.4-0.4,0.5s-0.2,0.2-0.4,0.5
	c-0.2,0.3-0.3,0.3-0.7,0.6c-0.3,0.3-0.2,0.1-0.4,0.5c-0.2,0.4-0.1,0.3-0.3,0.7s-0.4,0.7-0.5,1c-0.1,0.2-0.2,0.2-0.4,0.6
	c-0.1,0.3-0.2,0.4-0.4,0.8c-0.2,0.3-0.1,0.2-0.4,0.6c-0.2,0.4-0.4,0.5-0.6,0.9c-0.2,0.3-0.2,0.5-0.5,1c-0.3,0.5-0.4,0.9-0.7,1.2
	c-0.2,0.3-0.2,0.4-0.6,0.8c-0.4,0.4-0.8,0.4-1,0.7s-0.5,0.5-0.8,0.7c-0.3,0.2-0.6,0.3-1.1,0.4s-0.2,0-1.2,0.4c-1,0.4-1,0.4-1,0.4
	s-1.5,0.4-2,0.6C6.6,29.7,5.1,29.3,4,28.9z"/>
</svg>
