<svg id="Layer_1" data-name="Layer 1" xmlns="http://www.w3.org/2000/svg" viewBox="0 0 331.77 355.91"><defs><style>.cls-1{opacity:0.3;}.cls-2{fill:#ffc000;}</style></defs><title>UticaSVG </title><g class="cls-1"><path class="cls-2" d="M271.78,37.94c8.2,3.23,12.29,1.52,14.16,1.31a2.93,2.93,0,0,1,1.72.34,12.09,12.09,0,0,0,5.12,1.17c1.19.14,4.91,2.09,6,1.65,0,0,15.16-3,18.56-1.66,11.41,4.67,9.53,28.78,13.51,34.6S324.29,85.81,321,90s-4.05,14.05-4.16,19.76c-.05,2.85-1.85,5.74-3.62,7.92a61.2,61.2,0,0,0-5.53,7.91,24.28,24.28,0,0,1-3.74,5.13l-35.39,27.49c-7.35,4-13.59,9.67-16.45,9.93-4.19.38-11.32-3-16.44-6.57-9.62-6.66-6.56-17.62-3.07-21.54a2.49,2.49,0,0,0,.55-1.09c-.15-3.75-3.65-2.11-5.83-1.66a23.45,23.45,0,0,0-3.34,1s-15.7,8.06-35,35.15a12.25,12.25,0,0,0-2.27,6.29l-2,29.93a20.5,20.5,0,0,1-1.69,6.9l-12.21,27.75-18.58,64.18L151,323.16c-.24,4.32.36,8.94-2.64,12.16l-8.5,20.58h-2.1c0-.28.9-8.57,2.71-10.95,1.47-1.93,6-3.94,6.75-5.66.6-1.32.81-4.65,1.32-5.3,1-1.23,1.79-7.17,1.1-8.39s0-6.43-.44-7.85c-1.87-6.63-3.68-7.73-3.5-13,.08-2.33-1-11.71-1.86-13.88-1.72-4.25-6.15-5.4-7.66-9-3-7.08-6.42-8.12-11.87-12.5-3.27-2.63-24-7.95-37.2-2.6-27,10.92-23.58,15-24.54,17.41-1.59,4,.15,2.54-2.32,4.53-.47.38-1.65-.76-2-1.21a4.31,4.31,0,0,1-.82-1.8c-.93-3.33,3,.69,2.29-2.7l-1.34-6.6a3.36,3.36,0,0,0-.94-2,16.89,16.89,0,0,1,7.28-8.34,8.22,8.22,0,0,1,2-.86,7.37,7.37,0,0,0,2.18-.65,6.93,6.93,0,0,0,1.64-2.15,16.4,16.4,0,0,0,1.67-2.24,6.1,6.1,0,0,0,.37-2.66c0-3.73-2-6.93-3.7-10.27-.78-1.53,0-3.57-.72-5.13-2.05-4.44-.73-9.6.8-14.24A12.4,12.4,0,0,1,70,225.27a16,16,0,0,1,2.42-2.76,19.12,19.12,0,0,0,5.3-8.4c1.13-4.42-.44-9.55,1.26-13.79.74.11,1.28-.68,1.49-1.37.83-2.65.21-5.8,2-8,.85-1.06,2.16-1.76,2.79-2.95s-.22-3.15-1.55-2.79a3.78,3.78,0,0,0-1.27.89,3.78,3.78,0,0,1-3.37.65,4.83,4.83,0,0,1-6.52,2.15c-2.19-1.23-2.93-4-2.92-6.42s.54-4.93,0-7.33c-.58-2.67-2.46-5.32-1.53-7.9,1.33-3.67,7.61-4.5,2.69-12.1a6.08,6.08,0,0,0-1.61-1.71c-.5-.35-.92-.77-.83-1.32a2.35,2.35,0,0,1,.35-.75,3.42,3.42,0,0,0-.23-3.68c-.4-.53-1-1-1-1.69s.68-1.12,1.27-1.47a68.48,68.48,0,0,1,8.85-4.36c2.65-1.07,5.54-2.12,7.14-4.41,1-1.4,1.35-3.11,2.2-4.58a17,17,0,0,1,4.72-4.68c5.7-4.33,10.92-9.86,17.35-13.09a23.62,23.62,0,0,0,6.45-4.18,30.94,30.94,0,0,1,2.89-3c.88-.68,1.92-1.14,2.8-1.8a14.18,14.18,0,0,0,2.22-2.25A32.13,32.13,0,0,0,127,97.23c1.06-1.89,1.76-4,3.26-5.59A27.19,27.19,0,0,1,133,89.39a16.17,16.17,0,0,0,5.37-8.11c.4-1.4.69-3,1.94-3.83.81-.53,1.95-.67,2.47-1.46a2.85,2.85,0,0,0,.35-1.42c.13-2.17.2-4.48,1.43-6.31A11.45,11.45,0,0,1,148,65.32c6.87-4.52,14.68-8.61,23-8.2,2.82.14,6.05,1,7.89,3,1.85.12,3.35-1.31,4.76-2.48a23.2,23.2,0,0,1,25.72-2c0-1.45,2.1-2.06,3.45-1.43s2.19,1.94,3.29,2.92,2.93,1.58,4,.62c1.6-1.38,0-4,.74-6a5.24,5.24,0,0,1,1.25-1.67c3.89-4,8.41-8.19,14.07-8.33a4.57,4.57,0,0,0-2.41,4.67c.77,1,2.48.76,3.45-.07a17.47,17.47,0,0,0,2.25-3c1.81-2.39,4.89-3.51,7.82-4.41l2.23-.66c2.66-.77,5.92-1.34,7.91.53q0-.87,0-1.73l3.15-.55c-1.17.71-.4,2.69.94,3s2.69-.43,3.79-1.23a6,6,0,0,1,3.39-1.06c.19,2,2.64,2.65,4.61,2.14"/><path class="cls-2" d="M22.79,157.34v10.6a1.17,1.17,0,0,0,1.81.95l8-3.72c2.21-1.38,4.78-3.39,7.41-3.39h0a13.82,13.82,0,0,0,10.22-4.46l8.69-9.54c.92-1,2-.61,3.19-1.31l25.3-16a13.57,13.57,0,0,0,2.21-1.61l31.29-17,12.71-22.29s9.21-6.23,11.18-15.21l-3.95,1.58L105,105.26a13.7,13.7,0,0,1-3.69,2.16L63.55,122.21a13.68,13.68,0,0,0-4.11,2.51Z"/><path class="cls-2" d="M318.59,47c-6.23-8.1-15.58-4-24-4.56a30.23,30.23,0,0,1-4.92-1l-3.88-.93c-3.54-.94-7.16-1.66-10.63-2.86-2.82-1-10.91-2.52-13.46-4-3.18-1.9-3.18-1.9-7-1.93A2.24,2.24,0,0,1,253,30.59a2.56,2.56,0,0,1,.54-2.91c.69-.81,1.64-1.4,2.34-2.2a7.72,7.72,0,0,0,1.6-5.29c-.13-7.22-5.43-13.27-10.59-18.5-.88-.89-2-1.85-3.23-1.66a4,4,0,0,0-1.7.88A95.1,95.1,0,0,0,231.58,10a1,1,0,0,0,0,1.46c2.48,2.62.32,7.76-2.5,10.52-3.08,3-7.4,4.64-10.38,7.74-2,2.08-3.29,4.74-5.41,6.72s-5.16,3.23-8,4.35L191,46.37a19.05,19.05,0,0,1-7.07,1.74,28.24,28.24,0,0,1-5.51-1c-8.07-1.76-16.51,0-24.37,2.44-6.52,2.06-12.88,4.65-19.5,6.31a2.61,2.61,0,0,0-1,4.59,11.87,11.87,0,0,0,5,2.3,11,11,0,0,1,2.65.66A3.58,3.58,0,0,1,143,67.3a3.72,3.72,0,0,1-3.41,2.78A8.29,8.29,0,0,0,143.87,75c1.13-3.43,4.74-5.43,8.06-7.09,3.91-2,7.88-4,12.18-4.9s9.05-.74,12.82,1.48a4.93,4.93,0,0,0,2,.88c1.36.11,2.42-1.05,3.37-2a18.67,18.67,0,0,1,8.89-4.69c5.13-1.2,10.5-.64,15.75-.07l.79.09,10.09,1.09a1.91,1.91,0,0,0,2.37-1.5c2.86-5.75,7.62-9.28,14-10.89,1,1.19,2.22-1.6,2.37.61a1.66,1.66,0,0,0,2.46,1.43c2.06-.84,2.83-3.14,4.67-4.63s5.34-1.49,7.79-2.07,5.44.2,6.51,2.4a6.86,6.86,0,0,0,2.43-3.92c1.95.21.61,3.81,2.28,4.78s2.86-1.85,4.45-3a1.44,1.44,0,0,1,2,.4,5.4,5.4,0,0,0,4.44,1.72c2-.06,4-.67,5.92-.42s3.55,1.19,5.4,1.31c2.35.14,4.6-1.09,7-1.08a4.33,4.33,0,0,1,3.6,2.21,2.42,2.42,0,0,0,3.42,1.1l0,0a1.27,1.27,0,0,1,1.68.31c1,1.25,3.32,1.65,5.15,1.48a32.31,32.31,0,0,0,10-2.68c.43-.18,3.55,1.44,3.74,1.1"/><path class="cls-2" d="M89.58,128.85c.16,1.8-1.78,6.3-2.66,7.89L84.6,141a5.73,5.73,0,0,1-1.16,1.63,6,6,0,0,1-1.66.91l-9.59,4a4.48,4.48,0,0,0-2.78,4.36c.19,3.47,4.59,6.85,7.47,9,.83,2.61-2.61,5.48-4.05,7.83S72,173,70.1,175.07a2,2,0,0,0-.71,1.5c.13.89,1.3,1.16,2.09,1.64,2.21,1.32-1,4.47-1.12,7-.11,1.87,2.82-2.5,4-1a4.75,4.75,0,0,0,5.1,1.78c1.45-.51,2.41-1.81,3.64-2.72,1.5-1.12,2.88,4.89,3.26,7.33.19,1.23-1.76,2.46-2.83,3.15-1.83,1.18-2.18,3.07-2.52,4.89q-1.79,9.49-4.31,18.83A26.85,26.85,0,0,1,73.72,225c-1.21,1.91-2.88,3.54-3.93,5.53-1.7,3.23-1.59,7-1.45,10.64a16.8,16.8,0,0,0,1.17,6.63c1.16,2.45,3.47,4.28,4.53,6.78,1.86,4.38-.56,9.26-2.92,13.4-1.39,2.45-3.06,5.12-5.84,5.9-2.51.7-6.07.09-7,2.43-.33.81,1.93,2.79,2.1,3.64.54,2.76-1.09,4.85-.58,7.77A1.64,1.64,0,0,1,58,289.59a1.75,1.75,0,0,0-1.82,1.1,1.7,1.7,0,0,1-2.36,1c-1.14-.54.6,7.75-1.35,7.15-4.31-1.33-4.35-8.28-2.8-13.07L48.2,271.64c1.06-3.23-1.3-.71.23-3.74a4.76,4.76,0,0,0,.7-2.36c-.1-1.69-1.84-2.79-3.38-3.61l-3.23-1.72a5.78,5.78,0,0,1-3.2-5.59c.25-2.32-.41-6-2.09-7.65-2.52-2.5-7.31-2.64-9.61,0a18.15,18.15,0,0,1-1.74,2.16,5.23,5.23,0,0,1-3.74,1,15.92,15.92,0,0,1-9-3.08l-7.23-5.43a15.2,15.2,0,0,1-5.1-6.44c-3.47-8.77,5.09-13,8.5-19.45,1-1.87,1.66-4.08,3.5-5.2,2.46-1.49,5.67-.28,8.2,1.09,3.11,1.68,6.76,3.66,10,1a7.38,7.38,0,0,0,2.59-5.38c.33-6.39.71-13.77-3.25-19.18a5.63,5.63,0,0,0-2.64-2.18,7.25,7.25,0,0,0-2.63-.19,17.86,17.86,0,0,0-4.88,1.11c-4.42,1.51-9-2.48-7.44-6.75a4.4,4.4,0,0,1,.45-.94,13.23,13.23,0,0,1,3.82-3.64,2.62,2.62,0,0,0,.9-1.25,9.65,9.65,0,0,1,2.6-3c1.55-1,2.76-1.64,4.34-2.58"/><path class="cls-2" d="M228.58,11.64l-.29-.57c-.36-.72-4.9-.74-5.72-.85l-6.95,0A2.48,2.48,0,0,0,212.89,12l-3.36,11.61L142.41,37.79a1.2,1.2,0,0,0-.49.23l-14.36,11.2a1.11,1.11,0,0,0-.21,1.55L130.26,55a1.2,1.2,0,0,0,1.51.33s27-11,38.3-10.86c7.15.1,10.94.77,12.76,1.26a5.13,5.13,0,0,0,3.22-.2l24.35-9.74a4.44,4.44,0,0,0,2-1.6c.85-1.23,2.2-3.24,3-4.61a2.89,2.89,0,0,1,1-1l7.19-5.88C228,20.26,230.76,16,228.58,11.64Z"/></g></svg>