<svg id="Layer_1" data-name="Layer 1" xmlns="http://www.w3.org/2000/svg" viewBox="0 0 276.8 338.05"><defs><style>.cls-1{opacity:0.3;}.cls-2{fill:#ffc000;}</style></defs><title>MarcellusSVG</title><g class="cls-1"><path class="cls-2" d="M169.82,146.19a2,2,0,0,1-1.43-.18c-1-.69-.23-2.28.6-3.2l7-7.75L167,140.34a7.82,7.82,0,0,1-2.42.94,1.76,1.76,0,0,1-1.69-2.74,16.51,16.51,0,0,1,5.92-5.32c1.86-1,4.3-2.21,4.08-4.31-1-1.11-6.48,1.23-9.8,2.81a.37.37,0,0,1-.39-.62A80.69,80.69,0,0,1,176.24,122c2.09-1.12,4.61-2.87,4.12-5.2-6.2,2.64-11.57,6.39-17.61,9.4a16.23,16.23,0,0,0-2.6,1.75,12,12,0,0,0-1,.82c-.52.53-1.3,1.08-1.85.59.15-1.77,1.68-3.06,3.07-4.13,5.75-4.42,11.58-8.89,18.25-11.64,7-2.89,15.31-4.17,19.95-10.24a43.62,43.62,0,0,0-17.08,5.26c-1.35.74-2.92,1.58-4.32,1,.73-3,5.2-3,7.21-5.29a1.58,1.58,0,0,0,.37-1.8,1.74,1.74,0,0,0-1.39-.57,14.53,14.53,0,0,0-6,.86,4.34,4.34,0,0,1-2.35.46,1.18,1.18,0,0,1-.39-2.11c2.36-1.69,5-3,7.32-4.73.57-.43,1.09-1.42.45-1.73a1,1,0,0,0-.43-.08c-7.76-.21-15.05,4.5-21.19,8.74a139.72,139.72,0,0,0-12.69,9.87c-2.27,2-4.79,3.81-6.76,6.15-1.2,1.43-2.19,3-3.28,4.55a38,38,0,0,1-6.45,6.94c-1.22,1-2.65,2.37-2.25,3.9-4.75,6.68-5.94,13-6.53,21.21s-1.07,16.72-5.12,23.86c-1.36,2.39-3.09,4.56-4.4,7s-2.35,5.28-1.81,8c-4.13,4-6.66,9.45-8.73,14.87s-3.84,11.16-5.58,16.8c-3.34,10.8-6.75,21.63-11.67,31.81a42.35,42.35,0,0,0-2.28,5.19c-.9,2.74-1.12,5.64-1.73,8.46a31.74,31.74,0,0,1-10.36,17.35,20.64,20.64,0,0,1-.61-10.15c-.7-1.59-3.11-1.34-4.33-2.55-1-1-.91-2.63-1.38-4-.63-1.79-2.26-3-3.81-4.08l-12.6-8.87a68,68,0,0,0-9-5.65c-5.3-2.6-11.18-3.78-16.62-6.09a86.14,86.14,0,0,1-11-6l-6.67-4.07a4.23,4.23,0,0,1-1.33-1.09,4.34,4.34,0,0,1-.59-1.85c-.54-3.37.75-6.67.45-10.06L3,218.18a3.37,3.37,0,0,0-.68-2.09A16.63,16.63,0,0,1,10,208.53a7.58,7.58,0,0,1,1.94-.67,6.7,6.7,0,0,0,2.11-.44c.78-.42,1.19-1.29,1.75-2a16.34,16.34,0,0,0,1.79-2.06,6.35,6.35,0,0,0,.61-2.58c.34-3.67.65-7.49-.6-10.93-.58-1.58-1.47-3-2-4.63-1.47-4.56.28-9.51,2.17-13.94a12.72,12.72,0,0,1,1.3-2.51,15.72,15.72,0,0,1,2.54-2.5,19.24,19.24,0,0,0,5.8-7.8C28.91,154.24,28,149,30,145c.69.17,1.26-.55,1.53-1.22,1-2.54.78-5.69,2.64-7.7.9-1,2.2-1.54,2.91-2.65s.11-3.12-1.17-2.88a3.59,3.59,0,0,0-1.27.76,3.42,3.42,0,0,1-3.22.34,4.46,4.46,0,0,1-6.32,1.54c-1.93-1.41-2.34-4.17-2.09-6.58s1-4.8.75-7.21c-.28-2.68-1.77-5.46-.64-7.91,1.61-3.5,7.58-3.75,3.72-11.69a6.93,6.93,0,0,0-1.45-1.92,1.31,1.31,0,0,1-.52-1.25,2.4,2.4,0,0,1,.41-.71,3.53,3.53,0,0,0,.15-3.64c-.32-.56-5.55-2.53-5.45-3.18s.75-1,1.33-1.33c2.82-1.38,2-9,4.94-9.92,2.58-.82,2.16.49,3.9-1.62a7.21,7.21,0,0,1,3.28-1.5A12.32,12.32,0,0,0,37.09,73c1.65-1.1,4.09-1.9,5.44-2.79,5.76-3.75,13.18-6.9,19.52-9.51a22.3,22.3,0,0,0,6.45-3.54,30.3,30.3,0,0,1,3-2.74c.89-.59,1.91-1,2.8-1.53a13.84,13.84,0,0,0,2.31-2c1.39-1.41,7.52-1.42,8.63-3.07s2-3.79,3.61-5.21a26.13,26.13,0,0,1,2.78-2,16.22,16.22,0,0,0,5.84-7.5c.51-1.35,1-2.9,2.2-3.6.81-.45,1.89-.48,2.46-1.22a3,3,0,0,0,.47-1.37c.34-2.13.63-4.39,2-6.08A11.06,11.06,0,0,1,108,18.28c6.88-3.84,14.59-7.17,22.32-6,2.62.39,5.56,1.5,7.07,3.7,1.72.28,3.27-1,4.7-2a20.94,20.94,0,0,1,24.26.32c.13-1.42,2.17-1.84,3.37-1.1,1.73,1.08,2.33,3.46,4.3,4.32a2.24,2.24,0,0,0,2.08-.1c1.83-1.16.5-4,1.42-5.9A5.21,5.21,0,0,1,178.89,10c4-3.55,8.69-7.32,14-6.95a4.62,4.62,0,0,0-2.73,4.38c.62,1.06,2.24,1,3.23.24a17.42,17.42,0,0,0,2.4-2.79c1.93-2.19,4.93-3,7.76-3.64L205.7.74c2.57-.52,5.67-.79,7.35,1.22q.09-.85.2-1.7l3-.26c-1.16.6-.64,2.61.58,3s2.56-.18,3.67-.88A7.21,7.21,0,0,1,224.05.64a3.43,3.43,0,0,0,3.83,3.31c1.54-.27,3.18-1.58,4.45-.67.52.38.82,1.08,1.44,1.25s1.19-.25,1.8-.3c1.89-.16,3.22,3,5,2.19.63-.28,1-1,1.61-1.32a2.82,2.82,0,0,1,2.31.29l7.05,3.09a6.62,6.62,0,0,1,2.05,1.21,16.79,16.79,0,0,0,1.26,1.39c2.54,2,7.33-1.91,9.06.83a2.16,2.16,0,0,1,2.34-2,6.05,6.05,0,0,1,3.09,1.41l4.54,3.23a6.94,6.94,0,0,1,2.67,2.79,7.16,7.16,0,0,1,.13,3.65L274.47,36.7a32.41,32.41,0,0,1-1.8,8c-3,7.34-12.87,11.49-13.3,19.41a21,21,0,0,1-5,12.4c-1.76,2-3.92,3.75-5.41,6-2.36,3.57-2.85,8.23-5.59,11.51-1.85,2.22-4.52,3.53-6.8,5.29-2.49,1.92-4.51,4.38-6.8,6.54-3,2.79-6.33,5.07-9.47,7.6l-4.33,3.3c-10.43,7.66-20.53,16.18-32.07,22.11Z"/><path class="cls-2" d="M24.4,215.86a48,48,0,0,1,36.29-3c4,1.31,8.07,3.31,10.54,7,1.15,1.7,1.92,3.71,3.23,5.27s3.34,2.75,4.66,4.49c2.92,3.86,2,9.58,2.89,14.5.57,3,1.9,5.83,2.55,8.85,1.07,5,.24,10.23-.6,15.32a9.06,9.06,0,0,1-.86,3c-1.22,2.16-3.89,2.77-5.5,4.61s-1.91,4.76-2.05,7.36c-.23,4.27-1.09,1.28-1.32,5.55-.06,1.19-1.31,2-1.95,2.94s.23,8.89-.06,9.47c-2,4.12-9,1.56-13.1,3.45-2,.92-5.52,3.11-6.56,5.17-.49,1-.69,2.1-1.22,3.05a8.6,8.6,0,0,1-3.6,3c-10.23,5.7-15.21,14.09-26.18,17.76-2.49.83-5.25,1.86-6.92,3.87a1.37,1.37,0,0,1-2.41-.81c0-.2,0-.4-.06-.59a59.78,59.78,0,0,1-.28-10.54c.35-3.86-3.15-10-3.75-13.84-.34-2.18-1.24-4.24-1.32-6.45-.06-1.56,1.37-4.17,3.08-6.8,2.48-3.81.4-9.07-3.84-9.52a6.77,6.77,0,0,1-4.19-1.53A6.39,6.39,0,0,1,.17,285c-1-3.33,3.08-7,1.63-10.16a14.23,14.23,0,0,1-1.32-2.32c-.8-3.17,4.78-4.18,5.4-7.42a5.8,5.8,0,0,0-.64-3.21c-1.41-3.48-2.68-7.31-1.9-11.06s4.46-7.09,7.8-5.87c1.14-1.58-.2-3.69-1-5.44-2.26-4.83-.21-11.22,4.53-13-.07,0,.07,0,0,0C14.44,221.55,20.85,217.67,24.4,215.86Z"/></g></svg>