<svg id="Layer_1" data-name="Layer 1" xmlns="http://www.w3.org/2000/svg" viewBox="0 0 203.23 228.08"><defs><style>.cls-1{fill:#ffc000;opacity:0.3;}</style></defs><title>permianSVG </title><path class="cls-1" d="M186.81,133.08c-.52-12.31.92-24.62,2.36-36.88L194.5,51c.71-6,1.42-12.22,0-18.16s-5.35-11.75-11.59-14.21c-3.49-1.38-7.39-1.62-11.2-1.82q-28.85-1.51-57.76-1.31c-6,0-12.23.09-17.62-2.24S87.19,6.58,82.51,3.36c-12.35-8.49-29.42,1-43.16,7.88C26.8,17.5,17.48,27.81,13.09,40,6.72,57.74,2,60.45.64,76.21c-1.2,13.84-1.66,29,7.66,40.13,2.38,2.84,4.08,9.35,5.87,12.52,1.42,2.51,2,5.32,3.09,8,5.62,13.79,25.36,16.53,40.71,21.81l-16.78,8a7.71,7.71,0,0,0-4.53,6.06c-.44,5.71,6.9,7.19,11.89,5.51,4.29-1.44,3-2.38,7.37-3.71.49,3.26-.38,4.88-1,7.06-.45,1.64,1.58,3.43,3.13,2.45,9.91-6.3,23.24-9.18,35.12-10.39,7.79-.79,18.08,4.31,24.5,8.33,2.47,1.55,4.5,3.59,6.85,5.29,3.6,2.6,7.87,4.34,11.94,6.31a98.09,98.09,0,0,1,28,20.15c7.56,7.86,17.87,16.66,31,13.85,10.19-2.18,8-11.29,6.69-18.71C197.68,183.46,187.91,158.91,186.81,133.08Z"/></svg>