<?xml version="1.0" encoding="utf-8"?>
<!-- Generator: Adobe Illustrator 21.0.0, SVG Export Plug-In . SVG Version: 6.00 Build 0)  -->
<svg version="1.1" id="Layer_1" xmlns="http://www.w3.org/2000/svg" xmlns:xlink="http://www.w3.org/1999/xlink" x="0px" y="0px"
	 viewBox="0 0 232.4 232.6" style="enable-background:new 0 0 232.4 232.6;" xml:space="preserve">
<style type="text/css">
	.st0{opacity:0.3;fill:#FFC000;}
</style>
<path class="st0" d="M0,147.7l1.3,7.7l6.8,8.2c-0.5,14.8,12.2,18.8,12.2,18.8l4,7.3h2.5l4,11.5l6.5,5.6l6,3.7l4.5,2.5l-2.5,11.7
	l4.4,2.3c1.3-0.4,0.4,5.1,1.7,5.3c8.9,1.5,17.6-2.6,26.4-4.7c6.9-1.7,12.1-1.9,19.1-3.6c6.4-1.5,15.1-4.9,18.9-10.3
	c2.2-3.2,3.6-6.1,6.1-9.1c2-2.5,4.2-4.6,7-6.2c5.9-3.3,11.7-7.7,16.3-12.7c10.4-11.3,14.3-28,26.4-37.4c1.7-1.4,3.6-2.5,5.3-4
	c4.2-3.7,6.6-9,8.6-14.2c1.5-3.9,2.8-8.4,0.8-12c0.5-1.9,0.8-3.8,0.9-5.8c-0.4-0.1-0.7-0.2-1.1-0.3c0.7-1.4,1.1-3.2,1.3-4.8
	c1.3-8.2,3.3-16.3,7.6-23.4c4.2-7.1,10.9-13.1,18.9-15c4.6-6.2,15.4-7.7,17.9-15c2.4-6.7-2.9-13.6-3-20.7c0-4.1,1.8-8.1,2.8-12.1
	c1.1-4,1.3-15-1.4-18.1c-3.1-3.6-9-3.6-13.2-1.3c-4.2,2.3-7,12.7-9.7,16.6c-8.5,12.3-17,24.7-25.6,37c-2.4,3.5-4.8,7-6.3,11
	c-1,2.6-1.5,5.3-2.5,8c-2.3,6.4-6.7,11.7-11,16.9c-2.4,2.9-4.8,5.8-7.2,8.8c-1,1.2-2,2.4-3.1,3.5c-1.7,1.8-3.7,3.5-5.6,5.1
	c-9.1,7.6-18.1,15.3-27.2,22.9c-4.1,3.4-8.1,6.9-12.8,9.4c-4.2,2.3-8.8,3.8-13.5,5c-10.9,2.8-22.1,4-33.3,3.7
	c-2.7-0.1-5.5-0.3-8.1-1.3c-2.2-0.9-4.2-2.4-6.3-3.4c-2.3-1.1-4.9-1.6-7.4-2c-8.9-1.7-18.2-3.3-27.1-1.3
	C10.3,141.4,2.7,143.2,0,147.7z M61.4,182.7c-1.4,0.1-2.9,0.1-4.3,0.2C58.6,182.7,60,182.6,61.4,182.7z"/>
</svg>
