<?xml version="1.0" encoding="utf-8"?>
<!-- Generator: Adobe Illustrator 21.0.0, SVG Export Plug-In . SVG Version: 6.00 Build 0)  -->
<svg version="1.1" id="Layer_1" xmlns="http://www.w3.org/2000/svg" xmlns:xlink="http://www.w3.org/1999/xlink" x="0px" y="0px"
	 viewBox="0 0 372.4 159.8" style="enable-background:new 0 0 372.4 159.8;" xml:space="preserve">
<style type="text/css">
	.st0{opacity:0.3;fill:#FFC000;}
</style>
<path class="st0" d="M352.6,43c-7.7-2.2-15.4-5.4-23.3-7.1c-22.7-4.9-46.1-6.4-69.3-6.8c-4.8-0.1-9.7-0.2-14.3,1.3
	c-7.4,2.4-9.5,8.6-14,14.9c-1.8,2.5-3.6,5.1-6.3,6.5c-2.2,1.2-4.9,1.3-7.4,1.5c-29.4,1.5-64.6,0.6-90.8-12.9
	c-6.6-3.4-12-6.8-19.3-7.8c-5.6-0.8-10.7-6.7-15.9-9.1c-5.7-2.6-9.6-5.5-14.9-8.8c-3.3-2.1-7.3-5-11.1-5.9c-7-1.6-10.2-5.8-17.2-7.4
	C36.7-1.5,19.9,0.1,9.2,6.4C-2.6,13.4-0.9,27.8,2.5,41s6.7,26.1,16.3,35.8c4.5,4.6,9.2,9.1,15,11.8c10.2,4.9,22.4,3.9,33.1,7.6
	c10.6,3.6,19,11.5,27,19.2c4.8,4.5,9.5,9,14.3,13.6c2.8,2.6,5.7,5.4,9.4,6.5c4.7,1.3,10.2-0.1,14.1,2.8c2.1,1.5,3.3,3.9,4.7,6.1
	c9.4,15,31.6,20.1,46.7,10.9c8.2-5,14.1-13.4,22.9-17.4c7-3.2,15.1-3.2,22.2-6.2c10.8-4.6,8.5-7.8,17.6-15.2
	c10.4-8.4,16.9-12.3,30.2-10.9c3.9,0.4,15.5-5.6,19.3-6.4c3-0.6,7.7-8.3,10.7-8.6c26.5-2.9,52.3-11.9,64-29.7
	C378.1,48.9,362.6,45.8,352.6,43z"/>
</svg>
